<?xml version="1.0" encoding="UTF-8" standalone="no"?>
<!-- Created with Inkscape (http://www.inkscape.org/) -->

<svg
   width="577.95996"
   height="421.74637"
   viewBox="0 0 577.95996 421.74637"
   version="1.1"
   id="svg1"
   xmlns="http://www.w3.org/2000/svg"
   xmlns:svg="http://www.w3.org/2000/svg">
  <defs
     id="defs1" />
  <g
     id="layer1"
     transform="translate(-960.28711,-339.51791)">
    <g
       id="g35">
      <g
         id="g34">
        <rect
           style="fill:#666666;fill-opacity:1;stroke:#666666;stroke-width:8.37367;stroke-linecap:round;stroke-linejoin:round;stroke-dasharray:none;stroke-opacity:1"
           id="rect23"
           width="58.083931"
           height="114.096"
           x="1217.4607"
           y="434.03656"
           rx="0.60518521"
           ry="0.52254283" />
        <rect
           style="fill:#666666;fill-opacity:1;stroke:#666666;stroke-width:8.95052;stroke-linecap:round;stroke-linejoin:round;stroke-dasharray:none;stroke-opacity:1"
           id="rect26"
           width="66.699471"
           height="113.51915"
           x="1107.5565"
           y="418.32498"
           rx="0.69495177"
           ry="0.51990092" />
        <g
           id="g33"
           transform="rotate(2.8,1577.1959,519.83083)">
          <path
             style="fill:none;stroke:#666666;stroke-width:12.5;stroke-linecap:butt;stroke-linejoin:miter;stroke-dasharray:none;stroke-opacity:1"
             d="m 1405.2609,543.03162 115.3806,-96.81607"
             id="path31" />
          <path
             style="fill:#666666;fill-opacity:1;stroke:#666666;stroke-width:12.5;stroke-linecap:butt;stroke-linejoin:round;stroke-dasharray:none;stroke-opacity:1"
             d="m 1520.6415,446.21555 -25.1005,-30.37668 -33.3751,12.31505 -10.3617,72.34472 z"
             id="path33" />
        </g>
        <rect
           style="fill:#666666;fill-opacity:1;stroke:#666666;stroke-width:8.95052;stroke-linecap:round;stroke-linejoin:round;stroke-dasharray:none;stroke-opacity:1"
           id="rect25"
           width="66.699471"
           height="113.51915"
           x="1318.7493"
           y="418.32498"
           rx="0.69495177"
           ry="0.51990092" />
        <g
           id="g23"
           transform="matrix(0.72253597,0,0,1,345.30616,0)"
           style="stroke:#ffffff">
          <path
             id="path18"
             style="fill:#666666;fill-opacity:1;stroke:#ffffff;stroke-width:14.1173;stroke-linecap:round;stroke-linejoin:round;stroke-dasharray:none;stroke-opacity:1"
             d="m 1244.5078,486.65587 a 272.24888,132.0909 0 0 0 -272.2492,132.09023 272.24888,132.0909 0 0 0 78.6474,92.79881 h 387.2037 a 272.24888,132.0909 0 0 0 78.6474,-92.79881 272.24888,132.0909 0 0 0 -272.2493,-132.09023 z" />
          <path
             id="path21"
             style="fill:#4d4d4d;fill-opacity:1;stroke:#f9f9f9;stroke-width:14.1173;stroke-linecap:round;stroke-linejoin:round;stroke-dasharray:none;stroke-opacity:1"
             d="m 1244.5079,560.35824 a 164.98639,88.449011 0 0 0 -164.9866,88.44854 164.98639,88.449011 0 0 0 47.6614,62.13874 h 234.6504 a 164.98639,88.449011 0 0 0 47.6614,-62.13874 164.98639,88.449011 0 0 0 -164.9866,-88.44854 z" />
        </g>
        <g
           id="g21"
           transform="matrix(0.84568823,0,0,1.0174568,186.77103,158.64994)">
          <g
             id="g22"
             transform="translate(0,-176.2705)">
            <path
               style="fill:none;stroke:#666666;stroke-width:30;stroke-linecap:butt;stroke-linejoin:miter;stroke-dasharray:none;stroke-opacity:1"
               d="m 1579.7175,730.89091 c -91.9107,-49.43655 -116.1341,-8.62328 -164.5,0 -59.1667,26.66667 -114,26.66667 -164.5,0 -50.8333,-25.33333 -105.6667,-25.33333 -164.5,0 -52.1667,30.66667 -106.99997,30.66667 -164.49997,0"
               id="path19" />
            <path
               style="fill:none;stroke:#ffffff;stroke-width:30.1015;stroke-linecap:butt;stroke-linejoin:miter;stroke-dasharray:none;stroke-opacity:1"
               d="m 1590.9861,710.47914 c -92.5337,-49.43655 -134.3628,-23.11896 -179.1411,-5.65685 -59.5677,26.66667 -114.7727,26.66667 -165.615,0 -51.1779,-25.33333 -106.3829,-25.33333 -165.615,0 -52.1389,30.45533 -88.79036,35.08095 -148.46917,5.40563"
               id="path20" />
          </g>
        </g>
        <circle
           style="fill:#666666;fill-opacity:1;stroke:none;stroke-width:8.5;stroke-linecap:round;stroke-linejoin:round;stroke-dasharray:none;stroke-opacity:1"
           id="path26"
           cx="1140.9062"
           cy="371.37308"
           r="31.85516" />
        <circle
           style="fill:#666666;fill-opacity:1;stroke:none;stroke-width:8.5;stroke-linecap:round;stroke-linejoin:round;stroke-dasharray:none;stroke-opacity:1"
           id="circle26"
           cx="1352.099"
           cy="371.37308"
           r="31.85516" />
        <circle
           style="fill:#666666;fill-opacity:1;stroke:none;stroke-width:7.225;stroke-linecap:round;stroke-linejoin:round;stroke-dasharray:none;stroke-opacity:1"
           id="circle27"
           cx="1246.5027"
           cy="393.74457"
           r="27.076885" />
        <path
           style="fill:none;stroke:#666666;stroke-width:20;stroke-linecap:round;stroke-linejoin:round;stroke-dasharray:none;stroke-opacity:1"
           d="m 1377.924,423.84974 h 37.9572 v 94.32743"
           id="path27" />
        <path
           style="fill:none;stroke:#666666;stroke-width:20;stroke-linecap:round;stroke-linejoin:round;stroke-dasharray:none;stroke-opacity:1"
           d="m 1115.0813,423.84974 h -37.9572 v 94.32743"
           id="path28" />
        <path
           style="fill:none;stroke:#666666;stroke-width:12.5;stroke-linecap:butt;stroke-linejoin:miter;stroke-dasharray:none;stroke-opacity:1"
           d="M 994.07654,604.92758 1109.4572,508.11151"
           id="path30" />
        <path
           style="fill:#666666;fill-opacity:1;stroke:#666666;stroke-width:12.5;stroke-linecap:butt;stroke-linejoin:round;stroke-dasharray:none;stroke-opacity:1"
           d="M 994.07654,604.92758 969.44339,574.1707 988.29264,544 l 72.93946,4.57729 z"
           id="path32" />
      </g>
      <text
         xml:space="preserve"
         style="font-style:normal;font-variant:normal;font-weight:bold;font-stretch:normal;font-size:56px;line-height:1.25;font-family:Roboto;-inkscape-font-specification:'Roboto Bold';text-align:center;text-decoration:none;text-decoration-line:none;text-decoration-color:#000000;letter-spacing:0px;word-spacing:0px;text-anchor:middle;fill:#4d4d4d;fill-opacity:1;-inkscape-stroke:none;stop-color:#000000"
         x="1246.2096"
         y="823.85803"
         id="text33"><tspan
           id="tspan33"
           x="1246.2096"
           y="823.85803">RAPID ADVENTURE RAFTING</tspan></text>
    </g>
  </g>
</svg>
